PathFileType	4	(X/Y/Z)	/Users/itak/Documents/Research/Walk-IL/dataset/trc/00344_00011.trc
DataRate	CameraRate	NumFrames	NumMarkers	Units	OrigDataRate	OrigDataStartFrame	OrigNumFrames
100.000000	100.000000	4	53	mm	100.000000	430	688
Frame#	Time	RPSI			LPSI			L3			STRN			T10			C7			CLAV			RBAK			LBAK			LSHO			LUPA			LAEL			LAOL			LWTS			LWPS			LFRA			LIFD			LHPS			LHTS			RSHO			RUPA			RAEL			RAOL			RWTS			RWPS			RFRA			RIFD			RHTS			RHPS			RBHD			LFHD			RFHD			LBHD			LHIP			RHIP			RASI			LASI			LKNE			LTHI			LANK			LTIP			LTOE			LMT1			LMT5			LHEE			RKNE			RTHI			RANK			RTIP			RTOE			RMT1			RMT5			RHEE			
		X1	Y1	Z1	X2	Y2	Z2	X3	Y3	Z3	X4	Y4	Z4	X5	Y5	Z5	X6	Y6	Z6	X7	Y7	Z7	X8	Y8	Z8	X9	Y9	Z9	X10	Y10	Z10	X11	Y11	Z11	X12	Y12	Z12	X13	Y13	Z13	X14	Y14	Z14	X15	Y15	Z15	X16	Y16	Z16	X17	Y17	Z17	X18	Y18	Z18	X19	Y19	Z19	X20	Y20	Z20	X21	Y21	Z21	X22	Y22	Z22	X23	Y23	Z23	X24	Y24	Z24	X25	Y25	Z25	X26	Y26	Z26	X27	Y27	Z27	X28	Y28	Z28	X29	Y29	Z29	X30	Y30	Z30	X31	Y31	Z31	X32	Y32	Z32	X33	Y33	Z33	X34	Y34	Z34	X35	Y35	Z35	X36	Y36	Z36	X37	Y37	Z37	X38	Y38	Z38	X39	Y39	Z39	X40	Y40	Z40	X41	Y41	Z41	X42	Y42	Z42	X43	Y43	Z43	X44	Y44	Z44	X45	Y45	Z45	X46	Y46	Z46	X47	Y47	Z47	X48	Y48	Z48	X49	Y49	Z49	X50	Y50	Z50	X51	Y51	Z51	X52	Y52	Z52	X53	Y53	Z53	

431	4.3	-330.305419921875	963.5096435546875	-447.8716125488281	-235.3581390380859	957.8201293945312	-360.532470703125	-273.9067687988281	1023.99853515625	-407.8050842285156	-416.6211242675781	1209.771118164062	-215.3186492919922	-259.4966125488281	1141.13916015625	-396.2363891601562	-266.2222595214844	1389.419067382812	-347.1973876953125	-378.3017578125	1334.473510742188	-240.0747222900391	-284.3082885742188	1254.974609375	-433.6971130371094	-183.6664276123047	1348.26318359375	-289.4771118164062	-202.2618865966797	1363.590698242188	-188.3498382568359	-148.0653839111328	1242.153198242188	-150.2991180419922	-166.1998291015625	1044.407592773438	-99.51337432861328	-159.8463592529297	1016.740234375	-180.2587738037109	-345.462890625	883.9696044921875	-15.47580528259277	-290.2444152832031	850.0206909179688	8.094918251037598	-202.8098602294922	957.019775390625	-61.25281143188477	-427.176025390625	754.4158935546875	28.38265991210938	-323.9416809082031	789.3408813476562	22.42416954040527	-378.3371887207031	824.510498046875	27.57680892944336	-421.2341613769531	1383.707153320312	-419.4398803710938	-457.5202941894531	1323.10791015625	-475.6040344238281	-498.0894775390625	1064.727172851562	-529.021240234375	-418.4724731445312	1045.214599609375	-480.5928039550781	-585.1053466796875	835.2697143554688	-458.3136901855469	-595.6875	829.3679809570312	-534.0380859375	-529.667236328125	999.5991821289062	-532.1026000976562	-606.52978515625	664.14990234375	-470.641357421875	-622.5447387695312	735.8250732421875	-463.1898803710938	-611.2241821289062	743.1195068359375	-531.2197265625	-372.273681640625	1602.339111328125	-346.0087890625	-369.4912414550781	1592.894409179688	-137.2130126953125	-446.9829711914062	1600.258666992188	-201.7662811279297	-245.4395599365234	1589.500366210938	-277.4328918457031	-218.8373718261719	895.1286010742188	-227.9045562744141	-471.57861328125	925.7658081054688	-455.7516479492188	-501.2107849121094	956.138916015625	-347.6899719238281	-340.0088500976562	928.850830078125	-173.4586791992188	-327.1517028808594	441.9862976074219	-253.4442596435547	-299.8030700683594	580.2702026367188	-231.4850311279297	-293.069580078125	45.56839370727539	-396.18408203125	-311.3110961914062	225.3671112060547	-314.6169738769531	-489.5304260253906	41.9114875793457	-308.89794921875	-460.8921508789062	26.1114387512207	-384.3353881835938	-381.7051391601562	43.96918106079102	-306.7996215820312	-310.1142578125	40.01933288574219	-469.4369812011719	-641.1589965820312	510.4915161132812	-322.7443237304688	-586.703369140625	753.697998046875	-375.1739807128906	-611.0736694335938	90.62409973144531	-416.5153198242188	-652.6309204101562	389.2889404296875	-326.0680541992188	-729.2393798828125	65.23925018310547	-258.8815002441406	-658.6011962890625	63.31490707397461	-258.9660034179688	-699.2767333984375	63.70310974121094	-370.498046875	-543.3150634765625	97.81854248046875	-410.3367309570312	
432	4.31	-339.5198364257812	963.198486328125	-443.4218139648438	-243.0621795654297	957.499267578125	-357.877685546875	-281.7127685546875	1023.90966796875	-405.10498046875	-421.689453125	1209.002197265625	-209.4336853027344	-268.0513610839844	1139.859741210938	-392.0250549316406	-272.9534912109375	1388.681518554688	-343.0778503417969	-383.7752990722656	1333.753173828125	-234.6579284667969	-292.2008972167969	1254.314208984375	-429.4108276367188	-189.8422546386719	1347.420288085938	-286.3554077148438	-207.0868682861328	1362.985473632812	-184.9771575927734	-152.5296783447266	1241.51513671875	-147.3331146240234	-170.9774932861328	1043.946899414062	-95.44341278076172	-165.1830291748047	1015.850769042969	-176.0772399902344	-350.5450134277344	885.0451049804688	-9.465229988098145	-295.4136352539062	850.9249267578125	14.01770877838135	-207.7206115722656	956.9832153320312	-56.50508880615234	-432.7540893554688	756.3614501953125	35.88616180419922	-329.3225402832031	790.525634765625	28.94500923156738	-383.3284606933594	826.0974731445312	34.33148193359375	-428.8369140625	1383.094116210938	-413.3734741210938	-465.7045593261719	1322.68994140625	-469.2505187988281	-506.2931518554688	1064.505859375	-523.3118286132812	-426.2288513183594	1044.970458984375	-475.591552734375	-592.3866577148438	834.4246826171875	-453.5262756347656	-603.2562866210938	828.9769897460938	-529.2294921875	-537.7615966796875	999.3779907226562	-526.521484375	-613.3974609375	663.317138671875	-466.937744140625	-629.5399780273438	734.8875732421875	-458.8768310546875	-618.6058959960938	742.704345703125	-526.9329223632812	-378.9239501953125	1601.447998046875	-340.8935852050781	-374.0148010253906	1592.394653320312	-132.1371612548828	-452.1842041015625	1599.610595703125	-195.8704376220703	-251.4284973144531	1588.758056640625	-273.6748046875	-223.8929901123047	894.7240600585938	-225.6803283691406	-480.6394958496094	925.2537841796875	-448.9654541015625	-508.607666015625	955.4170532226562	-340.2324523925781	-344.1458740234375	928.0516967773438	-168.8525543212891	-330.1716613769531	441.4638061523438	-250.784423828125	-303.3851928710938	579.7410888671875	-228.9116058349609	-293.2442932128906	45.64480590820312	-395.9827270507812	-313.0614013671875	224.9522247314453	-313.0792846679688	-489.6414184570312	41.83516693115234	-308.8721618652344	-460.8973388671875	26.05448150634766	-384.4058532714844	-381.7888793945312	43.86930084228516	-306.7601623535156	-310.2447814941406	40.35176086425781	-469.3706665039062	-646.611328125	507.9562072753906	-313.9123840332031	-593.304443359375	752.2575073242188	-366.425048828125	-636.5631103515625	84.44860076904297	-392.0159301757812	-662.627197265625	387.7004089355469	-312.7955932617188	-749.7095336914062	69.99227905273438	-229.5623931884766	-679.3203735351562	65.40556335449219	-232.0231018066406	-723.9888916015625	62.76248168945312	-341.899658203125	-568.4458618164062	89.13094329833984	-388.5159912109375	
433	4.32	-348.8028564453125	962.7213745117188	-438.7168273925781	-250.81640625	957.0333862304688	-355.0027770996094	-289.5857543945312	1023.743530273438	-402.1956787109375	-426.7845458984375	1208.1435546875	-203.5015563964844	-276.7788696289062	1138.324462890625	-387.5327758789062	-279.6797180175781	1387.80810546875	-338.896728515625	-389.2566223144531	1332.942016601562	-229.1937713623047	-300.096923828125	1253.518798828125	-425.0148315429688	-196.1424865722656	1346.397827148438	-283.0498657226562	-211.9766082763672	1362.230224609375	-181.5364227294922	-157.049560546875	1240.76171875	-144.3137359619141	-175.7747802734375	1043.335815429688	-91.435791015625	-170.5316772460938	1014.872436523438	-171.9801025390625	-355.4136047363281	885.621337890625	-3.661094427108765	-300.3270263671875	851.3961791992188	19.72391510009766	-212.5108489990234	956.721435546875	-51.89163970947266	-437.8468017578125	757.59619140625	43.01745223999023	-334.3136596679688	791.2265625	35.17610549926758	-388.0045471191406	827.0762939453125	40.7918815612793	-436.4000854492188	1382.392822265625	-407.2428283691406	-473.8334045410156	1322.183349609375	-462.8318786621094	-514.5203857421875	1064.19775390625	-517.4772338867188	-434.0409240722656	1044.632202148438	-470.4256286621094	-599.7293090820312	833.499267578125	-448.6119995117188	-610.90380859375	828.5272216796875	-524.2945556640625	-545.89892578125	999.0750122070312	-520.7997436523438	-620.2590942382812	662.4063720703125	-463.1433715820312	-636.5416259765625	733.85693359375	-454.4485778808594	-626.0609741210938	742.2232666015625	-522.54150390625	-385.5725402832031	1600.45361328125	-335.7206115722656	-378.5350646972656	1591.778930664062	-127.0141677856445	-457.3650207519531	1598.845092773438	-189.9294738769531	-257.4227600097656	1587.910766601562	-269.8573913574219	-229.0467834472656	894.2271728515625	-223.2826385498047	-489.7010192871094	924.5286865234375	-441.9872131347656	-516.0419921875	954.5111694335938	-332.6643981933594	-348.4277954101562	927.1597900390625	-164.1225891113281	-333.3255004882812	440.8650512695312	-247.9537200927734	-307.0733642578125	579.1162719726562	-226.1140899658203	-293.4281005859375	45.74126434326172	-395.7731323242188	-314.8785095214844	224.5132598876953	-311.4942321777344	-489.7641296386719	41.74402236938477	-308.8485412597656	-460.8970642089844	26.00414276123047	-384.486328125	-381.8775329589844	43.75566864013672	-306.6858825683594	-310.3692932128906	40.73520278930664	-469.3011169433594	-651.8731689453125	505.0199890136719	-305.65087890625	-599.6671142578125	750.404541015625	-357.892578125	-661.1529541015625	79.29581451416016	-366.6452941894531	-672.19921875	386.1742858886719	-299.926025390625	-768.5709228515625	75.76966857910156	-199.9398956298828	-698.6155395507812	68.62630462646484	-204.7142944335938	-747.3637084960938	62.81476593017578	-312.5858154296875	-592.8333740234375	81.48487854003906	-365.7600708007812	
434	4.33	-358.1231994628906	962.099365234375	-433.7770080566406	-258.6153259277344	956.430419921875	-351.9230041503906	-297.5013732910156	1023.465942382812	-399.0636596679688	-431.8987731933594	1207.185668945312	-197.5126647949219	-285.4392700195312	1136.674072265625	-382.8950500488281	-286.4088439941406	1386.7978515625	-334.6537780761719	-394.7430114746094	1332.02685546875	-223.6714324951172	-308.0137329101562	1252.578735351562	-420.5122680664062	-202.5563354492188	1345.200927734375	-279.5735778808594	-216.9190826416016	1361.306518554688	-178.0499267578125	-161.6400299072266	1239.873901367188	-141.2400970458984	-180.5831298828125	1042.57080078125	-87.49517822265625	-175.8891296386719	1013.805603027344	-167.9737854003906	-360.0693359375	885.6904907226562	1.956719756126404	-304.9883422851562	851.4190063476562	25.22042274475098	-217.1883544921875	956.2222900390625	-47.41653823852539	-442.4844360351562	758.1129760742188	49.77718353271484	-338.9317626953125	791.4293823242188	41.11225128173828	-392.4083557128906	827.43994140625	46.95218276977539	-443.9440307617188	1381.592529296875	-401.0452270507812	-481.9266052246094	1321.574096679688	-456.3433227539062	-522.7626953125	1063.785522460938	-511.5217895507812	-441.9151306152344	1044.173095703125	-465.0999755859375	-607.1326904296875	832.4867553710938	-443.558349609375	-618.626953125	828.0020751953125	-519.2227783203125	-554.0711059570312	998.6724243164062	-514.9457397460938	-627.1409912109375	661.4115600585938	-459.2333984375	-643.5684814453125	732.7319946289062	-449.8937377929688	-633.5852661132812	741.662841796875	-518.0271606445312	-392.2250366210938	1599.353149414062	-330.4873046875	-383.0491027832031	1591.04248046875	-121.8368072509766	-462.529541015625	1597.958618164062	-183.9444580078125	-263.4276733398438	1586.9501953125	-265.9773254394531	-234.2978973388672	893.638427734375	-220.7123260498047	-498.8079833984375	923.5556030273438	-434.7860412597656	-523.5091552734375	953.4210815429688	-324.9771423339844	-352.8436279296875	926.1845092773438	-159.280517578125	-336.5809326171875	440.1871032714844	-244.9628601074219	-310.8367614746094	578.4019775390625	-223.1220245361328	-293.611083984375	45.86697769165039	-395.5775146484375	-316.6987609863281	224.092041015625	-309.9218444824219	-489.890869140625	41.63251876831055	-308.82958984375	-460.8986206054688	25.96759033203125	-384.5634460449219	-381.9679260253906	43.63446807861328	-306.5851135253906	-310.4808959960938	41.16629409790039	-469.2333374023438	-656.9906616210938	501.767578125	-297.93701171875	-605.8555908203125	748.1530151367188	-349.6083374023438	-684.6375122070312	75.24188995361328	-340.5733642578125	-681.3278198242188	384.7599487304688	-287.5390930175781	-785.8660888671875	82.65494537353516	-170.3358459472656	-716.498779296875	73.04942321777344	-177.28515625	-769.3034057617188	63.94038772583008	-282.8336181640625	-616.249755859375	74.96832275390625	-342.1766357421875	
